{
  "accessors": [
    {
      "bufferView": 2,
      "componentType": 5126,
      "count": 65532,
      "max": [
        0.7634679675102234,
        1.1546128988265991,
        0.994865357875824
      ],
      "min": [
        -0.9206560254096985,
        0.009685873985290527,
        -0.9883049130439758
      ],
      "type": "VEC3"
    },
    {
      "bufferView": 2,
      "byteOffset": 786384,
      "componentType": 5126,
      "count": 65532,
      "max": [
        0.9999445676803589,
        0.9999836683273315,
        0.9999924898147583
      ],
      "min": [
        -0.9999839067459106,
        -1.0,
        -0.9999546408653259
      ],
      "type": "VEC3"
    },
    {
      "bufferView": 1,
      "componentType": 5126,
      "count": 65532,
      "max": [
        0.99609375,
        0.9974594116210938
      ],
      "min": [
        0.0,
        0.0
      ],
      "type": "VEC2"
    },
    {
      "bufferView": 0,
      "componentType": 5125,
      "count": 305229,
      "type": "SCALAR"
    },
    {
      "bufferView": 2,
      "byteOffset": 1572768,
      "componentType": 5126,
      "count": 65532,
      "max": [
        0.7635256052017212,
        1.1491268873214722,
        0.9690581560134888
      ],
      "min": [
        -0.905392050743103,
        0.009516894817352295,
        -0.9841963052749634
      ],
      "type": "VEC3"
    },
    {
      "bufferView": 2,
      "byteOffset": 2359152,
      "componentType": 5126,
      "count": 65532,
      "max": [
        0.9999431371688843,
        0.999982476234436,
        0.9999924898147583
      ],
      "min": [
        -0.9999939203262329,
        -1.0,
        -0.9999551177024841
      ],
      "type": "VEC3"
    },
    {
      "bufferView": 1,
      "byteOffset": 524256,
      "componentType": 5126,
      "count": 65532,
      "max": [
        0.99609375,
        0.9982662200927734
      ],
      "min": [
        0.0,
        0.0
      ],
      "type": "VEC2"
    },
    {
      "bufferView": 0,
      "byteOffset": 1220916,
      "componentType": 5125,
      "count": 295776,
      "type": "SCALAR"
    },
    {
      "bufferView": 2,
      "byteOffset": 3145536,
      "componentType": 5126,
      "count": 65532,
      "max": [
        0.7555590271949768,
        1.1473488807678223,
        1.0211358070373535
      ],
      "min": [
        -0.9100966453552246,
        0.009539902210235596,
        -0.999395489692688
      ],
      "type": "VEC3"
    },
    {
      "bufferView": 2,
      "byteOffset": 3931920,
      "componentType": 5126,
      "count": 65532,
      "max": [
        0.9999575018882751,
        0.9999489188194275,
        0.9999889135360718
      ],
      "min": [
        -0.9999938607215881,
        -1.0,
        -0.9999144077301025
      ],
      "type": "VEC3"
    },
    {
      "bufferView": 1,
      "byteOffset": 1048512,
      "componentType": 5126,
      "count": 65532,
      "max": [
        0.99609375,
        0.9977207183837891
      ],
      "min": [
        0.0,
        0.0
      ],
      "type": "VEC2"
    },
    {
      "bufferView": 0,
      "byteOffset": 2404020,
      "componentType": 5125,
      "count": 278217,
      "type": "SCALAR"
    },
    {
      "bufferView": 2,
      "byteOffset": 4718304,
      "componentType": 5126,
      "count": 65532,
      "max": [
        0.7413603067398071,
        1.1549679040908813,
        1.0211358070373535
      ],
      "min": [
        -0.9292021989822388,
        0.009524881839752197,
        -0.9952552318572998
      ],
      "type": "VEC3"
    },
    {
      "bufferView": 2,
      "byteOffset": 5504688,
      "componentType": 5126,
      "count": 65532,
      "max": [
        0.9999821186065674,
        0.9999058842658997,
        0.9999470710754395
      ],
      "min": [
        -0.9999838471412659,
        -1.0,
        -0.9999840259552002
      ],
      "type": "VEC3"
    },
    {
      "bufferView": 1,
      "byteOffset": 1572768,
      "componentType": 5126,
      "count": 65532,
      "max": [
        0.99609375,
        0.9979915618896484
      ],
      "min": [
        0.0,
        0.0
      ],
      "type": "VEC2"
    },
    {
      "bufferView": 0,
      "byteOffset": 3516888,
      "componentType": 5125,
      "count": 259113,
      "type": "SCALAR"
    },
    {
      "bufferView": 2,
      "byteOffset": 6291072,
      "componentType": 5126,
      "count": 65533,
      "max": [
        0.7632957696914673,
        1.1594009399414063,
        1.0026673078536987
      ],
      "min": [
        -0.9196106195449829,
        0.009521901607513428,
        -0.9883049130439758
      ],
      "type": "VEC3"
    },
    {
      "bufferView": 2,
      "byteOffset": 7077468,
      "componentType": 5126,
      "count": 65533,
      "max": [
        0.9999924302101135,
        0.9999521970748901,
        0.999988853931427
      ],
      "min": [
        -0.9999004602432251,
        -1.0,
        -0.9999231100082397
      ],
      "type": "VEC3"
    },
    {
      "bufferView": 1,
      "byteOffset": 2097024,
      "componentType": 5126,
      "count": 65533,
      "max": [
        0.99609375,
        0.9991040229797363
      ],
      "min": [
        -0.0,
        0.0
      ],
      "type": "VEC2"
    },
    {
      "bufferView": 0,
      "byteOffset": 4553340,
      "componentType": 5125,
      "count": 225666,
      "type": "SCALAR"
    },
    {
      "bufferView": 2,
      "byteOffset": 7863864,
      "componentType": 5126,
      "count": 65532,
      "max": [
        0.7593753337860107,
        1.1546368598937988,
        1.0160812139511108
      ],
      "min": [
        -0.9292021989822388,
        0.009515881538391113,
        -0.999395489692688
      ],
      "type": "VEC3"
    },
    {
      "bufferView": 2,
      "byteOffset": 8650248,
      "componentType": 5126,
      "count": 65532,
      "max": [
        0.9999887943267822,
        0.9998363852500916,
        0.9999959468841553
      ],
      "min": [
        -0.9999860525131226,
        -1.0,
        -0.9998934268951416
      ],
      "type": "VEC3"
    },
    {
      "bufferView": 1,
      "byteOffset": 2621288,
      "componentType": 5126,
      "count": 65532,
      "max": [
        0.99609375,
        0.9986896514892578
      ],
      "min": [
        -0.0,
        0.0
      ],
      "type": "VEC2"
    },
    {
      "bufferView": 0,
      "byteOffset": 5456004,
      "componentType": 5125,
      "count": 175665,
      "type": "SCALAR"
    },
    {
      "bufferView": 2,
      "byteOffset": 9436632,
      "componentType": 5126,
      "count": 65534,
      "max": [
        0.7554468512535095,
        1.148772954940796,
        1.0121396780014038
      ],
      "min": [
        -0.9277234077453613,
        0.009515881538391113,
        -0.979458749294281
      ],
      "type": "VEC3"
    },
    {
      "bufferView": 2,
      "byteOffset": 10223040,
      "componentType": 5126,
      "count": 65534,
      "max": [
        0.9999889135360718,
        0.9997208118438721,
        0.9999959468841553
      ],
      "min": [
        -0.999985933303833,
        -1.0,
        -0.9998339414596558
      ],
      "type": "VEC3"
    },
    {
      "bufferView": 1,
      "byteOffset": 3145544,
      "componentType": 5126,
      "count": 65534,
      "max": [
        0.99609375,
        0.9992122650146484
      ],
      "min": [
        -0.0,
        0.0
      ],
      "type": "VEC2"
    },
    {
      "bufferView": 0,
      "byteOffset": 6158664,
      "componentType": 5125,
      "count": 118404,
      "type": "SCALAR"
    },
    {
      "bufferView": 2,
      "byteOffset": 11009448,
      "componentType": 5126,
      "count": 65532,
      "max": [
        0.7564785480499268,
        1.154723882675171,
        1.0085175037384033
      ],
      "min": [
        -0.9248307943344116,
        0.009515881538391113,
        -0.9963049292564392
      ],
      "type": "VEC3"
    },
    {
      "bufferView": 2,
      "byteOffset": 11795832,
      "componentType": 5126,
      "count": 65532,
      "max": [
        0.9998672604560852,
        0.9999216198921204,
        0.9999924898147583
      ],
      "min": [
        -0.999832272529602,
        -1.0,
        -0.9999324083328247
      ],
      "type": "VEC3"
    },
    {
      "bufferView": 1,
      "byteOffset": 3669816,
      "componentType": 5126,
      "count": 65532,
      "max": [
        0.99609375,
        1.0
      ],
      "min": [
        0.0,
        0.0
      ],
      "type": "VEC2"
    },
    {
      "bufferView": 0,
      "byteOffset": 6632280,
      "componentType": 5125,
      "count": 83196,
      "type": "SCALAR"
    },
    {
      "bufferView": 2,
      "byteOffset": 12582216,
      "componentType": 5126,
      "count": 689,
      "max": [
        0.677642285823822,
        1.0590219497680664,
        0.8793267011642456
      ],
      "min": [
        -0.8868108987808228,
        0.009524881839752197,
        -0.9186023473739624
      ],
      "type": "VEC3"
    },
    {
      "bufferView": 2,
      "byteOffset": 12590484,
      "componentType": 5126,
      "count": 689,
      "max": [
        0.9949265718460083,
        0.9946799278259277,
        0.9955852031707764
      ],
      "min": [
        -0.9740835428237915,
        -1.0,
        -0.9950885772705078
      ],
      "type": "VEC3"
    },
    {
      "bufferView": 1,
      "byteOffset": 4194072,
      "componentType": 5126,
      "count": 689,
      "max": [
        0.99609375,
        0.9990358352661133
      ],
      "min": [
        0.00469207763671875,
        0.01025390625
      ],
      "type": "VEC2"
    },
    {
      "bufferView": 0,
      "byteOffset": 6965064,
      "componentType": 5125,
      "count": 753,
      "type": "SCALAR"
    }
  ],
  "asset": {
    "extras": {
      "author": "Brian Trepanier (https://sketchfab.com/CMBC)",
      "license": "CC-BY-4.0 (http://creativecommons.org/licenses/by/4.0/)",
      "source": "https://sketchfab.com/3d-models/lazulight-coral-109f3290b9304b8fa9802ccd73656b34",
      "title": "Lazulight - coral"
    },
    "generator": "Sketchfab-16.72.0",
    "version": "2.0"
  },
  "bufferViews": [
    {
      "buffer": 0,
      "byteLength": 6968076,
      "name": "floatBufferViews",
      "target": 34963
    },
    {
      "buffer": 0,
      "byteLength": 4199584,
      "byteOffset": 6968076,
      "byteStride": 8,
      "name": "floatBufferViews",
      "target": 34962
    },
    {
      "buffer": 0,
      "byteLength": 12598752,
      "byteOffset": 11167660,
      "byteStride": 12,
      "name": "floatBufferViews",
      "target": 34962
    }
  ],
  "buffers": [
    {
      "byteLength": 23766412,
      "uri": "scene.bin"
    }
  ],
  "extensionsUsed": [
    "KHR_materials_specular"
  ],
  "images": [
    {
      "uri": "textures/Material_0_baseColor.jpeg"
    }
  ],
  "materials": [
    {
      "doubleSided": true,
      "extensions": {
        "KHR_materials_specular": {
          "specularColorFactor": [
            1.0,
            1.0,
            1.0
          ],
          "specularFactor": 0.01
        }
      },
      "name": "Material_0",
      "pbrMetallicRoughness": {
        "baseColorTexture": {
          "index": 0
        },
        "metallicFactor": 0.0,
        "roughnessFactor": 0.0
      }
    }
  ],
  "meshes": [
    {
      "name": "Object_0",
      "primitives": [
        {
          "attributes": {
            "NORMAL": 1,
            "POSITION": 0,
            "TEXCOORD_0": 2
          },
          "indices": 3,
          "material": 0,
          "mode": 4
        }
      ]
    },
    {
      "name": "Object_1",
      "primitives": [
        {
          "attributes": {
            "NORMAL": 5,
            "POSITION": 4,
            "TEXCOORD_0": 6
          },
          "indices": 7,
          "material": 0,
          "mode": 4
        }
      ]
    },
    {
      "name": "Object_2",
      "primitives": [
        {
          "attributes": {
            "NORMAL": 9,
            "POSITION": 8,
            "TEXCOORD_0": 10
          },
          "indices": 11,
          "material": 0,
          "mode": 4
        }
      ]
    },
    {
      "name": "Object_3",
      "primitives": [
        {
          "attributes": {
            "NORMAL": 13,
            "POSITION": 12,
            "TEXCOORD_0": 14
          },
          "indices": 15,
          "material": 0,
          "mode": 4
        }
      ]
    },
    {
      "name": "Object_4",
      "primitives": [
        {
          "attributes": {
            "NORMAL": 17,
            "POSITION": 16,
            "TEXCOORD_0": 18
          },
          "indices": 19,
          "material": 0,
          "mode": 4
        }
      ]
    },
    {
      "name": "Object_5",
      "primitives": [
        {
          "attributes": {
            "NORMAL": 21,
            "POSITION": 20,
            "TEXCOORD_0": 22
          },
          "indices": 23,
          "material": 0,
          "mode": 4
        }
      ]
    },
    {
      "name": "Object_6",
      "primitives": [
        {
          "attributes": {
            "NORMAL": 25,
            "POSITION": 24,
            "TEXCOORD_0": 26
          },
          "indices": 27,
          "material": 0,
          "mode": 4
        }
      ]
    },
    {
      "name": "Object_7",
      "primitives": [
        {
          "attributes": {
            "NORMAL": 29,
            "POSITION": 28,
            "TEXCOORD_0": 30
          },
          "indices": 31,
          "material": 0,
          "mode": 4
        }
      ]
    },
    {
      "name": "Object_8",
      "primitives": [
        {
          "attributes": {
            "NORMAL": 33,
            "POSITION": 32,
            "TEXCOORD_0": 34
          },
          "indices": 35,
          "material": 0,
          "mode": 4
        }
      ]
    }
  ],
  "nodes": [
    {
      "children": [
        1
      ],
      "matrix": [
        1.0,
        0.0,
        0.0,
        0.0,
        0.0,
        2.220446049250313e-16,
        -1.0,
        0.0,
        0.0,
        1.0,
        2.220446049250313e-16,
        0.0,
        0.0,
        0.0,
        0.0,
        1.0
      ],
      "name": "Sketchfab_model"
    },
    {
      "children": [
        2
      ],
      "name": "root"
    },
    {
      "children": [
        3
      ],
      "matrix": [
        1.0,
        0.0,
        0.0,
        0.0,
        0.0,
        2.220446049250313e-16,
        1.0,
        0.0,
        0.0,
        -1.0,
        2.220446049250313e-16,
        0.0,
        0.0,
        0.0,
        0.0,
        1.0
      ],
      "name": "GLTF_SceneRootNode"
    },
    {
      "children": [
        4,
        5,
        6,
        7,
        8,
        9,
        10,
        11,
        12
      ],
      "name": "Mesh_0_0"
    },
    {
      "mesh": 0,
      "name": "Object_4"
    },
    {
      "mesh": 1,
      "name": "Object_5"
    },
    {
      "mesh": 2,
      "name": "Object_6"
    },
    {
      "mesh": 3,
      "name": "Object_7"
    },
    {
      "mesh": 4,
      "name": "Object_8"
    },
    {
      "mesh": 5,
      "name": "Object_9"
    },
    {
      "mesh": 6,
      "name": "Object_10"
    },
    {
      "mesh": 7,
      "name": "Object_11"
    },
    {
      "mesh": 8,
      "name": "Object_12"
    }
  ],
  "samplers": [
    {
      "magFilter": 9729,
      "minFilter": 9987,
      "wrapS": 10497,
      "wrapT": 10497
    }
  ],
  "scene": 0,
  "scenes": [
    {
      "name": "Sketchfab_Scene",
      "nodes": [
        0
      ]
    }
  ],
  "textures": [
    {
      "sampler": 0,
      "source": 0
    }
  ]
}
