{
  "accessors": [
    {
      "bufferView": 2,
      "componentType": 5126,
      "count": 53598,
      "max": [
        0.058918170630931854,
        0.08620123565196991,
        0.059788186103105545
      ],
      "min": [
        -0.050168611109256744,
        0.02951420098543167,
        -0.0605347603559494
      ],
      "type": "VEC3"
    },
    {
      "bufferView": 2,
      "byteOffset": 643176,
      "componentType": 5126,
      "count": 53598,
      "max": [
        0.9999904036521912,
        0.9999889731407166,
        0.9999877214431763
      ],
      "min": [
        -0.9999884366989136,
        -0.9964551329612732,
        -0.9998927712440491
      ],
      "type": "VEC3"
    },
    {
      "bufferView": 3,
      "componentType": 5126,
      "count": 53598,
      "max": [
        0.9999802112579346,
        0.9999527931213379,
        0.9999996423721313,
        1.0
      ],
      "min": [
        -0.9999520778656006,
        -0.9999867677688599,
        -0.9999867081642151,
        -1.0
      ],
      "type": "VEC4"
    },
    {
      "bufferView": 1,
      "componentType": 5126,
      "count": 53598,
      "max": [
        0.9999890923500061,
        0.9999839663505554
      ],
      "min": [
        0.00010547716374276206,
        0.001011967658996582
      ],
      "type": "VEC2"
    },
    {
      "bufferView": 1,
      "byteOffset": 428784,
      "componentType": 5126,
      "count": 53598,
      "max": [
        0.9999890923500061,
        0.9999839663505554
      ],
      "min": [
        0.00010547716374276206,
        0.001011967658996582
      ],
      "type": "VEC2"
    },
    {
      "bufferView": 1,
      "byteOffset": 857568,
      "componentType": 5126,
      "count": 53598,
      "max": [
        0.9999890923500061,
        0.9999839663505554
      ],
      "min": [
        0.00010547716374276206,
        0.001011967658996582
      ],
      "type": "VEC2"
    },
    {
      "bufferView": 1,
      "byteOffset": 1286352,
      "componentType": 5126,
      "count": 53598,
      "max": [
        0.9999890923500061,
        0.9999839663505554
      ],
      "min": [
        0.00010547716374276206,
        0.001011967658996582
      ],
      "type": "VEC2"
    },
    {
      "bufferView": 1,
      "byteOffset": 1715136,
      "componentType": 5126,
      "count": 53598,
      "max": [
        0.9999890923500061,
        0.9999839663505554
      ],
      "min": [
        0.00010547716374276206,
        0.001011967658996582
      ],
      "type": "VEC2"
    },
    {
      "bufferView": 0,
      "componentType": 5125,
      "count": 275331,
      "type": "SCALAR"
    }
  ],
  "asset": {
    "extras": {
      "author": "Laura.mclnnn (https://sketchfab.com/Laura.mclnnn)",
      "license": "CC-BY-4.0 (http://creativecommons.org/licenses/by/4.0/)",
      "source": "https://sketchfab.com/3d-models/rock-igneous-lava-rock-with-lots-of-holes-6c3dd6d2e4f0476fa570de4f0903dfd6",
      "title": "Rock - igneous / lava rock with lots of holes"
    },
    "generator": "Sketchfab-15.59.0",
    "version": "2.0"
  },
  "bufferViews": [
    {
      "buffer": 0,
      "byteLength": 1101324,
      "name": "floatBufferViews",
      "target": 34963
    },
    {
      "buffer": 0,
      "byteLength": 2143920,
      "byteOffset": 1101324,
      "byteStride": 8,
      "name": "floatBufferViews",
      "target": 34962
    },
    {
      "buffer": 0,
      "byteLength": 1286352,
      "byteOffset": 3245244,
      "byteStride": 12,
      "name": "floatBufferViews",
      "target": 34962
    },
    {
      "buffer": 0,
      "byteLength": 857568,
      "byteOffset": 4531596,
      "byteStride": 16,
      "name": "floatBufferViews",
      "target": 34962
    }
  ],
  "buffers": [
    {
      "byteLength": 5389164,
      "uri": "scene.bin"
    }
  ],
  "images": [
    {
      "uri": "textures/material_0_baseColor.jpeg"
    },
    {
      "uri": "textures/material_0_metallicRoughness.png"
    },
    {
      "uri": "textures/material_0_normal.jpeg"
    }
  ],
  "materials": [
    {
      "name": "material_0",
      "normalTexture": {
        "index": 2
      },
      "occlusionTexture": {
        "index": 1
      },
      "pbrMetallicRoughness": {
        "baseColorTexture": {
          "index": 0
        },
        "metallicFactor": 0.0,
        "metallicRoughnessTexture": {
          "index": 1
        }
      }
    }
  ],
  "meshes": [
    {
      "name": "Object_0",
      "primitives": [
        {
          "attributes": {
            "NORMAL": 1,
            "POSITION": 0,
            "TANGENT": 2,
            "TEXCOORD_0": 3,
            "TEXCOORD_1": 4,
            "TEXCOORD_2": 5,
            "TEXCOORD_3": 6,
            "TEXCOORD_4": 7
          },
          "indices": 8,
          "material": 0,
          "mode": 4
        }
      ]
    }
  ],
  "nodes": [
    {
      "children": [
        1
      ],
      "matrix": [
        1.0,
        0.0,
        0.0,
        0.0,
        0.0,
        2.220446049250313e-16,
        -1.0,
        0.0,
        0.0,
        1.0,
        2.220446049250313e-16,
        0.0,
        0.0,
        0.0,
        0.0,
        1.0
      ],
      "name": "Sketchfab_model"
    },
    {
      "children": [
        2
      ],
      "name": "root"
    },
    {
      "children": [
        3
      ],
      "matrix": [
        1.0,
        0.0,
        0.0,
        0.0,
        0.0,
        2.220446049250313e-16,
        1.0,
        0.0,
        0.0,
        -1.0,
        2.220446049250313e-16,
        0.0,
        0.0,
        0.0,
        0.0,
        1.0
      ],
      "name": "GLTF_SceneRootNode"
    },
    {
      "children": [
        4
      ],
      "name": "_0"
    },
    {
      "mesh": 0,
      "name": "Object_4"
    }
  ],
  "samplers": [
    {
      "magFilter": 9729,
      "minFilter": 9987,
      "wrapS": 10497,
      "wrapT": 10497
    }
  ],
  "scene": 0,
  "scenes": [
    {
      "name": "Sketchfab_Scene",
      "nodes": [
        0
      ]
    }
  ],
  "textures": [
    {
      "sampler": 0,
      "source": 0
    },
    {
      "sampler": 0,
      "source": 1
    },
    {
      "sampler": 0,
      "source": 2
    }
  ]
}
