{
  "accessors": [
    {
      "bufferView": 2,
      "componentType": 5126,
      "count": 7761,
      "max": [
        1.234773874282837,
        0.9748689532279968,
        1.2708101272583008
      ],
      "min": [
        -0.9789754152297974,
        -0.9496266841888428,
        -0.023990241810679436
      ],
      "type": "VEC3"
    },
    {
      "bufferView": 2,
      "byteOffset": 93132,
      "componentType": 5126,
      "count": 7761,
      "max": [
        0.9995278120040894,
        0.9996669292449951,
        0.999993085861206
      ],
      "min": [
        -0.9999608993530273,
        -0.9999455213546753,
        -0.5686647891998291
      ],
      "type": "VEC3"
    },
    {
      "bufferView": 3,
      "componentType": 5126,
      "count": 7761,
      "max": [
        0.9972199201583862,
        0.8960474133491516,
        0.9998734593391418,
        1.0
      ],
      "min": [
        -0.6248048543930054,
        -0.6218972206115723,
        -0.9999641180038452,
        1.0
      ],
      "type": "VEC4"
    },
    {
      "bufferView": 1,
      "componentType": 5126,
      "count": 7761,
      "max": [
        1.9175853729248047,
        1.9134963750839233
      ],
      "min": [
        -0.924432098865509,
        -0.9305216670036316
      ],
      "type": "VEC2"
    },
    {
      "bufferView": 0,
      "componentType": 5125,
      "count": 46080,
      "type": "SCALAR"
    }
  ],
  "asset": {
    "extras": {
      "author": "VX-Designs (https://sketchfab.com/vxdesigns)",
      "license": "CC-BY-4.0 (http://creativecommons.org/licenses/by/4.0/)",
      "source": "https://sketchfab.com/3d-models/sea-rock-free-502604e7a1374e12afa116da982cbb8d",
      "title": "Sea Rock [Free]"
    },
    "generator": "Sketchfab-12.68.0",
    "version": "2.0"
  },
  "bufferViews": [
    {
      "buffer": 0,
      "byteLength": 184320,
      "name": "floatBufferViews",
      "target": 34963
    },
    {
      "buffer": 0,
      "byteLength": 62088,
      "byteOffset": 184320,
      "byteStride": 8,
      "name": "floatBufferViews",
      "target": 34962
    },
    {
      "buffer": 0,
      "byteLength": 186264,
      "byteOffset": 246408,
      "byteStride": 12,
      "name": "floatBufferViews",
      "target": 34962
    },
    {
      "buffer": 0,
      "byteLength": 124176,
      "byteOffset": 432672,
      "byteStride": 16,
      "name": "floatBufferViews",
      "target": 34962
    }
  ],
  "buffers": [
    {
      "byteLength": 556848,
      "uri": "scene.bin"
    }
  ],
  "images": [
    {
      "uri": "textures/Scene_-_Root_baseColor.png"
    },
    {
      "uri": "textures/Scene_-_Root_normal.png"
    }
  ],
  "materials": [
    {
      "doubleSided": true,
      "name": "Scene_-_Root",
      "normalTexture": {
        "index": 1
      },
      "pbrMetallicRoughness": {
        "baseColorTexture": {
          "index": 0
        },
        "metallicFactor": 0.0
      }
    }
  ],
  "meshes": [
    {
      "name": "Icosphere__0",
      "primitives": [
        {
          "attributes": {
            "NORMAL": 1,
            "POSITION": 0,
            "TANGENT": 2,
            "TEXCOORD_0": 3
          },
          "indices": 4,
          "material": 0,
          "mode": 4
        }
      ]
    }
  ],
  "nodes": [
    {
      "children": [
        1
      ],
      "matrix": [
        0.006031674798578024,
        0.0,
        0.0,
        0.0,
        0.0,
        1.3393008476865251e-18,
        -0.006031674798578024,
        0.0,
        0.0,
        0.006031674798578024,
        1.3393008476865251e-18,
        0.0,
        0.0,
        0.0,
        0.0,
        1.0
      ],
      "name": "Sketchfab_model"
    },
    {
      "children": [
        2
      ],
      "matrix": [
        1.0,
        0.0,
        0.0,
        0.0,
        0.0,
        0.0,
        1.0,
        0.0,
        0.0,
        -1.0,
        0.0,
        0.0,
        0.0,
        0.0,
        0.0,
        1.0
      ],
      "name": "02b19b0da69741559414d665adc1ab11.fbx"
    },
    {
      "children": [
        3
      ],
      "name": "RootNode"
    },
    {
      "children": [
        4
      ],
      "matrix": [
        100.0,
        0.0,
        0.0,
        0.0,
        0.0,
        -1.629206793918314e-05,
        -99.99999999999868,
        0.0,
        0.0,
        99.99999999999868,
        -1.629206793918314e-05,
        0.0,
        0.0,
        0.0,
        0.0,
        1.0
      ],
      "name": "Icosphere"
    },
    {
      "mesh": 0,
      "name": "Icosphere__0"
    }
  ],
  "samplers": [
    {
      "magFilter": 9729,
      "minFilter": 9987,
      "wrapS": 10497,
      "wrapT": 10497
    }
  ],
  "scene": 0,
  "scenes": [
    {
      "name": "Sketchfab_Scene",
      "nodes": [
        0
      ]
    }
  ],
  "textures": [
    {
      "sampler": 0,
      "source": 0
    },
    {
      "sampler": 0,
      "source": 1
    }
  ]
}
