{
  "accessors": [
    {
      "bufferView": 3,
      "componentType": 5126,
      "count": 31704,
      "max": [
        14.885700225830078,
        54.078399658203125,
        38.16960144042969
      ],
      "min": [
        -14.933599472045898,
        -1.4325407846627058e-06,
        -80.17608642578125
      ],
      "type": "VEC3"
    },
    {
      "bufferView": 3,
      "byteOffset": 380448,
      "componentType": 5126,
      "count": 31704,
      "max": [
        0.9999996423721313,
        0.9999939799308777,
        0.9999380111694336
      ],
      "min": [
        -0.9999963045120239,
        -0.9998605251312256,
        -0.9992270469665527
      ],
      "type": "VEC3"
    },
    {
      "bufferView": 4,
      "componentType": 5126,
      "count": 31704,
      "max": [
        0.9999889135360718,
        0.9997848868370056,
        0.9999821782112122,
        1.0
      ],
      "min": [
        -0.999923825263977,
        -0.9999352097511292,
        -0.9999573230743408,
        -1.0
      ],
      "type": "VEC4"
    },
    {
      "bufferView": 2,
      "componentType": 5126,
      "count": 31704,
      "max": [
        0.9996020197868347,
        0.9996050000190735
      ],
      "min": [
        0.0003980000037699938,
        0.00039500001003034413
      ],
      "type": "VEC2"
    },
    {
      "bufferView": 1,
      "componentType": 5125,
      "count": 149640,
      "type": "SCALAR"
    },
    {
      "bufferView": 5,
      "componentType": 5126,
      "count": 26,
      "max": [
        1.0000003576278687,
        0.03966014087200165,
        0.03918179124593735,
        0.0,
        0.03967566415667534,
        1.0000001192092896,
        0.03967933729290962,
        0.0,
        0.00714000454172492,
        0.0395255871117115,
        1.0000001192092896,
        0.0,
        1.0872430801391602,
        1.0967704057693481,
        1.006395936012268,
        1.0
      ],
      "min": [
        -0.0016601363895460963,
        -0.03968530148267746,
        -0.03926981985569,
        0.0,
        -0.0396757572889328,
        -0.0391010157763958,
        -0.03941158950328827,
        0.0,
        -0.007005769293755293,
        -0.039672307670116425,
        -0.0391010157763958,
        0.0,
        -1.0874048471450806,
        -2.3244967460632324,
        -2.0595688819885254,
        1.0
      ],
      "type": "MAT4"
    },
    {
      "bufferView": 0,
      "componentType": 5123,
      "count": 31704,
      "type": "VEC4"
    },
    {
      "bufferView": 4,
      "byteOffset": 507264,
      "componentType": 5126,
      "count": 31704,
      "max": [
        1.0,
        0.4998190701007843,
        0.31866058707237244,
        0.23546859622001648
      ],
      "min": [
        0.26559898257255554,
        0.0,
        0.0,
        0.0
      ],
      "type": "VEC4"
    },
    {
      "bufferView": 6,
      "componentType": 5126,
      "count": 45,
      "max": [
        8.316666603088379
      ],
      "min": [
        0.0
      ],
      "type": "SCALAR"
    },
    {
      "bufferView": 7,
      "componentType": 5126,
      "count": 45,
      "max": [
        -1.8626450382086546e-09,
        0.41267144680023193,
        6.6065699577677606e-09
      ],
      "min": [
        -1.862645371275562e-09,
        0.41267144680023193,
        6.606569513678551e-09
      ],
      "type": "VEC3"
    },
    {
      "bufferView": 6,
      "byteOffset": 180,
      "componentType": 5126,
      "count": 493,
      "max": [
        8.316666603088379
      ],
      "min": [
        0.0
      ],
      "type": "SCALAR"
    },
    {
      "bufferView": 8,
      "componentType": 5126,
      "count": 493,
      "max": [
        0.19705097377300262,
        0.020784704014658928,
        0.25524988770484924,
        0.9805513024330139
      ],
      "min": [
        0.1826018989086151,
        -0.05711188167333603,
        -0.2555493414402008,
        0.9466513395309448
      ],
      "type": "VEC4"
    },
    {
      "bufferView": 6,
      "byteOffset": 2152,
      "componentType": 5126,
      "count": 45,
      "max": [
        8.316666603088379
      ],
      "min": [
        0.0
      ],
      "type": "SCALAR"
    },
    {
      "bufferView": 7,
      "byteOffset": 540,
      "componentType": 5126,
      "count": 45,
      "max": [
        -1.8626450382086546e-09,
        0.41267144680023193,
        6.6065699577677606e-09
      ],
      "min": [
        -1.862645371275562e-09,
        0.41267144680023193,
        6.606569513678551e-09
      ],
      "type": "VEC3"
    },
    {
      "bufferView": 6,
      "byteOffset": 2332,
      "componentType": 5126,
      "count": 485,
      "max": [
        8.316666603088379
      ],
      "min": [
        0.0
      ],
      "type": "SCALAR"
    },
    {
      "bufferView": 8,
      "byteOffset": 7888,
      "componentType": 5126,
      "count": 485,
      "max": [
        -0.2550062835216522,
        0.13945378363132477,
        0.23039810359477997,
        0.9587159156799316
      ],
      "min": [
        -0.2837275266647339,
        -0.02660142444074154,
        -0.25836852192878723,
        0.9212872385978699
      ],
      "type": "VEC4"
    },
    {
      "bufferView": 6,
      "byteOffset": 4272,
      "componentType": 5126,
      "count": 296,
      "max": [
        8.316666603088379
      ],
      "min": [
        0.0
      ],
      "type": "SCALAR"
    },
    {
      "bufferView": 7,
      "byteOffset": 1080,
      "componentType": 5126,
      "count": 296,
      "max": [
        -3.49245854458502e-10,
        0.6714456081390381,
        -9.364157449454069e-09
      ],
      "min": [
        -3.492460765031069e-10,
        0.6714456081390381,
        -9.364157449454069e-09
      ],
      "type": "VEC3"
    },
    {
      "bufferView": 6,
      "byteOffset": 5456,
      "componentType": 5126,
      "count": 491,
      "max": [
        8.316666603088379
      ],
      "min": [
        0.0
      ],
      "type": "SCALAR"
    },
    {
      "bufferView": 8,
      "byteOffset": 15648,
      "componentType": 5126,
      "count": 491,
      "max": [
        -0.007017197553068399,
        0.0065740859135985374,
        0.23674072325229645,
        0.9999608993530273
      ],
      "min": [
        -0.00982673466205597,
        -0.008491181768476963,
        -0.17043344676494598,
        0.9715104103088379
      ],
      "type": "VEC4"
    },
    {
      "bufferView": 6,
      "byteOffset": 7420,
      "componentType": 5126,
      "count": 387,
      "max": [
        8.316666603088379
      ],
      "min": [
        0.0
      ],
      "type": "SCALAR"
    },
    {
      "bufferView": 7,
      "byteOffset": 4632,
      "componentType": 5126,
      "count": 387,
      "max": [
        2.1100224345538265e-10,
        1.2436585426330566,
        -5.587981188881486e-09
      ],
      "min": [
        2.1100207692192896e-10,
        1.2436585426330566,
        -5.587982077059905e-09
      ],
      "type": "VEC3"
    },
    {
      "bufferView": 6,
      "byteOffset": 8968,
      "componentType": 5126,
      "count": 495,
      "max": [
        8.316666603088379
      ],
      "min": [
        0.0
      ],
      "type": "SCALAR"
    },
    {
      "bufferView": 8,
      "byteOffset": 23504,
      "componentType": 5126,
      "count": 495,
      "max": [
        -0.030014337971806526,
        -0.00267108716070652,
        0.20143450796604156,
        0.9995055198669434
      ],
      "min": [
        -0.031512707471847534,
        -0.0038192421197891235,
        -0.15941102802753448,
        0.9790370464324951
      ],
      "type": "VEC4"
    },
    {
      "bufferView": 6,
      "byteOffset": 10948,
      "componentType": 5126,
      "count": 493,
      "max": [
        8.316666603088379
      ],
      "min": [
        0.0
      ],
      "type": "SCALAR"
    },
    {
      "bufferView": 8,
      "byteOffset": 31424,
      "componentType": 5126,
      "count": 493,
      "max": [
        0.708246648311615,
        0.05909686163067818,
        0.06319683790206909,
        0.7059650421142578
      ],
      "min": [
        0.7057486772537231,
        -0.05922811105847359,
        -0.06323383003473282,
        0.7031445503234863
      ],
      "type": "VEC4"
    },
    {
      "bufferView": 6,
      "byteOffset": 12920,
      "componentType": 5126,
      "count": 250,
      "max": [
        8.316666603088379
      ],
      "min": [
        0.0
      ],
      "type": "SCALAR"
    },
    {
      "bufferView": 8,
      "byteOffset": 39312,
      "componentType": 5126,
      "count": 250,
      "max": [
        -0.5948629975318909,
        -0.08143220096826553,
        0.06556330621242523,
        0.7969995141029358
      ],
      "min": [
        -0.5948629975318909,
        -0.08143220096826553,
        0.06556330621242523,
        0.7969995141029358
      ],
      "type": "VEC4"
    },
    {
      "bufferView": 6,
      "byteOffset": 13920,
      "componentType": 5126,
      "count": 444,
      "max": [
        8.316666603088379
      ],
      "min": [
        0.0
      ],
      "type": "SCALAR"
    },
    {
      "bufferView": 8,
      "byteOffset": 43312,
      "componentType": 5126,
      "count": 444,
      "max": [
        -0.051422227174043655,
        0.12082508951425552,
        0.0004976417403668165,
        0.9981505870819092
      ],
      "min": [
        -0.5218673348426819,
        0.030476756393909454,
        -0.04497038573026657,
        0.8506024479866028
      ],
      "type": "VEC4"
    },
    {
      "bufferView": 6,
      "byteOffset": 15696,
      "componentType": 5126,
      "count": 492,
      "max": [
        8.316666603088379
      ],
      "min": [
        0.0
      ],
      "type": "SCALAR"
    },
    {
      "bufferView": 8,
      "byteOffset": 50416,
      "componentType": 5126,
      "count": 492,
      "max": [
        -0.46403712034225464,
        0.04637986421585083,
        0.04470138996839523,
        0.8849499821662903
      ],
      "min": [
        -0.46586212515830994,
        -0.0925678163766861,
        -0.023068884387612343,
        0.8801778554916382
      ],
      "type": "VEC4"
    },
    {
      "bufferView": 6,
      "byteOffset": 17664,
      "componentType": 5126,
      "count": 493,
      "max": [
        8.316666603088379
      ],
      "min": [
        0.0
      ],
      "type": "SCALAR"
    },
    {
      "bufferView": 8,
      "byteOffset": 58288,
      "componentType": 5126,
      "count": 493,
      "max": [
        0.5680469274520874,
        1.7247279515686387e-07,
        0.018192848190665245,
        0.9999682307243347
      ],
      "min": [
        0.007965896278619766,
        -4.625580459105549e-06,
        0.0002551813959144056,
        0.8227950930595398
      ],
      "type": "VEC4"
    },
    {
      "bufferView": 6,
      "byteOffset": 19636,
      "componentType": 5126,
      "count": 494,
      "max": [
        8.316666603088379
      ],
      "min": [
        0.0
      ],
      "type": "SCALAR"
    },
    {
      "bufferView": 8,
      "byteOffset": 66176,
      "componentType": 5126,
      "count": 494,
      "max": [
        0.6470960974693298,
        0.01906966231763363,
        0.0038600971456617117,
        0.999998927116394
      ],
      "min": [
        -0.1207750141620636,
        -0.0006035292753949761,
        -0.03811755031347275,
        0.762143075466156
      ],
      "type": "VEC4"
    },
    {
      "bufferView": 6,
      "byteOffset": 21612,
      "componentType": 5126,
      "count": 373,
      "max": [
        8.316666603088379
      ],
      "min": [
        0.0
      ],
      "type": "SCALAR"
    },
    {
      "bufferView": 8,
      "byteOffset": 74080,
      "componentType": 5126,
      "count": 373,
      "max": [
        -0.03031485714018345,
        0.1183016374707222,
        0.5069574117660522,
        0.9175889492034912
      ],
      "min": [
        -0.09269660711288452,
        5.042577555514072e-08,
        0.3784521818161011,
        0.8569722771644592
      ],
      "type": "VEC4"
    },
    {
      "bufferView": 6,
      "byteOffset": 23104,
      "componentType": 5126,
      "count": 372,
      "max": [
        8.316666603088379
      ],
      "min": [
        0.0
      ],
      "type": "SCALAR"
    },
    {
      "bufferView": 8,
      "byteOffset": 80048,
      "componentType": 5126,
      "count": 372,
      "max": [
        -0.0856059268116951,
        6.392291851398113e-08,
        -0.24603895843029022,
        0.8931993842124939
      ],
      "min": [
        -0.34850379824638367,
        -0.24427667260169983,
        -0.4774459898471832,
        0.8708276152610779
      ],
      "type": "VEC4"
    }
  ],
  "animations": [
    {
      "channels": [
        {
          "sampler": 0,
          "target": {
            "node": 10,
            "path": "translation"
          }
        },
        {
          "sampler": 1,
          "target": {
            "node": 10,
            "path": "rotation"
          }
        },
        {
          "sampler": 2,
          "target": {
            "node": 12,
            "path": "translation"
          }
        },
        {
          "sampler": 3,
          "target": {
            "node": 12,
            "path": "rotation"
          }
        },
        {
          "sampler": 4,
          "target": {
            "node": 9,
            "path": "translation"
          }
        },
        {
          "sampler": 5,
          "target": {
            "node": 9,
            "path": "rotation"
          }
        },
        {
          "sampler": 6,
          "target": {
            "node": 8,
            "path": "translation"
          }
        },
        {
          "sampler": 7,
          "target": {
            "node": 8,
            "path": "rotation"
          }
        },
        {
          "sampler": 8,
          "target": {
            "node": 7,
            "path": "rotation"
          }
        },
        {
          "sampler": 9,
          "target": {
            "node": 15,
            "path": "rotation"
          }
        },
        {
          "sampler": 10,
          "target": {
            "node": 17,
            "path": "rotation"
          }
        },
        {
          "sampler": 11,
          "target": {
            "node": 14,
            "path": "rotation"
          }
        },
        {
          "sampler": 12,
          "target": {
            "node": 20,
            "path": "rotation"
          }
        },
        {
          "sampler": 13,
          "target": {
            "node": 23,
            "path": "rotation"
          }
        },
        {
          "sampler": 14,
          "target": {
            "node": 27,
            "path": "rotation"
          }
        },
        {
          "sampler": 15,
          "target": {
            "node": 30,
            "path": "rotation"
          }
        }
      ],
      "name": "Armature|ArmatureAction",
      "samplers": [
        {
          "input": 8,
          "interpolation": "LINEAR",
          "output": 9
        },
        {
          "input": 10,
          "interpolation": "LINEAR",
          "output": 11
        },
        {
          "input": 12,
          "interpolation": "LINEAR",
          "output": 13
        },
        {
          "input": 14,
          "interpolation": "LINEAR",
          "output": 15
        },
        {
          "input": 16,
          "interpolation": "LINEAR",
          "output": 17
        },
        {
          "input": 18,
          "interpolation": "LINEAR",
          "output": 19
        },
        {
          "input": 20,
          "interpolation": "LINEAR",
          "output": 21
        },
        {
          "input": 22,
          "interpolation": "LINEAR",
          "output": 23
        },
        {
          "input": 24,
          "interpolation": "LINEAR",
          "output": 25
        },
        {
          "input": 26,
          "interpolation": "LINEAR",
          "output": 27
        },
        {
          "input": 28,
          "interpolation": "LINEAR",
          "output": 29
        },
        {
          "input": 30,
          "interpolation": "LINEAR",
          "output": 31
        },
        {
          "input": 32,
          "interpolation": "LINEAR",
          "output": 33
        },
        {
          "input": 34,
          "interpolation": "LINEAR",
          "output": 35
        },
        {
          "input": 36,
          "interpolation": "LINEAR",
          "output": 37
        },
        {
          "input": 38,
          "interpolation": "LINEAR",
          "output": 39
        }
      ]
    }
  ],
  "asset": {
    "extras": {
      "author": "Jungle Jim (https://sketchfab.com/jungle_jim)",
      "license": "CC-BY-4.0 (http://creativecommons.org/licenses/by/4.0/)",
      "source": "https://sketchfab.com/3d-models/alien-fish-animated-f7f672a642fe4734a889d9482a3d8144",
      "title": "Alien Fish (animated)"
    },
    "generator": "Sketchfab-16.85.0",
    "version": "2.0"
  },
  "bufferViews": [
    {
      "buffer": 0,
      "byteLength": 253632,
      "byteStride": 8,
      "name": "shortBufferViews",
      "target": 34962
    },
    {
      "buffer": 0,
      "byteLength": 598560,
      "byteOffset": 253632,
      "name": "floatBufferViews",
      "target": 34963
    },
    {
      "buffer": 0,
      "byteLength": 253632,
      "byteOffset": 852192,
      "byteStride": 8,
      "name": "floatBufferViews",
      "target": 34962
    },
    {
      "buffer": 0,
      "byteLength": 760896,
      "byteOffset": 1105824,
      "byteStride": 12,
      "name": "floatBufferViews",
      "target": 34962
    },
    {
      "buffer": 0,
      "byteLength": 1014528,
      "byteOffset": 1866720,
      "byteStride": 16,
      "name": "floatBufferViews",
      "target": 34962
    },
    {
      "buffer": 0,
      "byteLength": 1664,
      "byteOffset": 2881248,
      "name": "floatBufferViews"
    },
    {
      "buffer": 0,
      "byteLength": 24592,
      "byteOffset": 2882912,
      "name": "floatBufferViews"
    },
    {
      "buffer": 0,
      "byteLength": 9276,
      "byteOffset": 2907504,
      "byteStride": 12,
      "name": "floatBufferViews"
    },
    {
      "buffer": 0,
      "byteLength": 86000,
      "byteOffset": 2916780,
      "byteStride": 16,
      "name": "floatBufferViews"
    }
  ],
  "buffers": [
    {
      "byteLength": 3002780,
      "uri": "scene.bin"
    }
  ],
  "images": [
    {
      "uri": "textures/Material.002_baseColor.png"
    },
    {
      "uri": "textures/Material.002_metallicRoughness.png"
    },
    {
      "uri": "textures/Material.002_normal.png"
    }
  ],
  "materials": [
    {
      "doubleSided": true,
      "emissiveFactor": [
        0.5202256080053271,
        0.5202256080053271,
        0.5202256080053271
      ],
      "emissiveTexture": {
        "index": 0
      },
      "name": "Material.002",
      "normalTexture": {
        "index": 2
      },
      "pbrMetallicRoughness": {
        "baseColorTexture": {
          "index": 0
        },
        "metallicRoughnessTexture": {
          "index": 1
        }
      }
    }
  ],
  "meshes": [
    {
      "name": "material_Material.002_0",
      "primitives": [
        {
          "attributes": {
            "JOINTS_0": 6,
            "NORMAL": 1,
            "POSITION": 0,
            "TANGENT": 2,
            "TEXCOORD_0": 3,
            "TEXCOORD_1": 3,
            "TEXCOORD_2": 3,
            "WEIGHTS_0": 7
          },
          "indices": 4,
          "material": 0,
          "mode": 4
        }
      ]
    }
  ],
  "nodes": [
    {
      "children": [
        1
      ],
      "matrix": [
        4.466530799865723,
        0.0,
        0.0,
        0.0,
        0.0,
        9.917690668416685e-16,
        -4.466530799865723,
        0.0,
        0.0,
        4.466530799865723,
        9.917690668416685e-16,
        0.0,
        0.0,
        0.0,
        0.0,
        1.0
      ],
      "name": "Sketchfab_model"
    },
    {
      "children": [
        2
      ],
      "matrix": [
        0.009999999776482582,
        0.0,
        0.0,
        0.0,
        0.0,
        0.0,
        0.009999999776482582,
        0.0,
        0.0,
        -0.009999999776482582,
        0.0,
        0.0,
        0.0,
        0.0,
        0.0,
        1.0
      ],
      "name": "677f7b1f0be3481aac50c316089d84a7.fbx"
    },
    {
      "children": [
        3
      ],
      "name": "Object_2"
    },
    {
      "children": [
        4,
        34
      ],
      "name": "RootNode"
    },
    {
      "children": [
        5
      ],
      "name": "Armature",
      "rotation": [
        0.9998779892921448,
        0.0,
        0.0,
        -0.015626467764377594
      ],
      "scale": [
        25.191444396972656,
        25.191450119018555,
        25.191450119018555
      ],
      "translation": [
        0.0,
        31.603986740112305,
        0.0
      ]
    },
    {
      "children": [
        6,
        33,
        32
      ],
      "name": "Object_5"
    },
    {
      "children": [
        7,
        14,
        19,
        22,
        25
      ],
      "name": "_rootJoint"
    },
    {
      "children": [
        8
      ],
      "name": "Bone_00",
      "rotation": [
        0.7081930637359619,
        -0.008499564602971077,
        0.008989879861474037,
        0.7059103846549988
      ],
      "scale": [
        0.9999999403953552,
        1.0,
        1.0
      ],
      "translation": [
        -0.0028201218228787184,
        0.17602011561393738,
        -0.24902670085430145
      ]
    },
    {
      "children": [
        9
      ],
      "name": "Bone.001_01",
      "rotation": [
        -0.03134327381849289,
        -0.003385471412912011,
        -0.0073908306658267975,
        0.9994755983352661
      ],
      "scale": [
        0.9999999403953552,
        0.9999997615814209,
        0.9999999403953552
      ],
      "translation": [
        1.4842953532934189e-09,
        1.2436586618423462,
        -2.7317582862451673e-08
      ]
    },
    {
      "children": [
        10,
        12
      ],
      "name": "Bone.002_02",
      "rotation": [
        -0.008381632156670094,
        -0.0021722607780247927,
        0.06616732478141785,
        0.9977710843086243
      ],
      "scale": [
        0.9999999403953552,
        1.0,
        1.0
      ],
      "translation": [
        2.0954757928848267e-09,
        0.6714457869529724,
        5.762558430433273e-09
      ]
    },
    {
      "children": [
        11
      ],
      "name": "Bone.003_03",
      "rotation": [
        0.1937316358089447,
        -0.02738456428050995,
        -0.05660446733236313,
        0.979037344455719
      ],
      "scale": [
        1.0,
        0.9999999403953552,
        0.9999998807907104
      ],
      "translation": [
        2.0401785150170326e-08,
        0.4126717448234558,
        1.280568540096283e-08
      ]
    },
    {
      "name": "Bone.003_end_017",
      "rotation": [
        5.551115123125783e-17,
        -1.925929944387236e-34,
        -3.469446951953614e-18,
        1.0
      ],
      "translation": [
        0.0,
        0.8605661988258362,
        -3.3306690738754696e-16
      ]
    },
    {
      "children": [
        13
      ],
      "name": "Bone.004_04",
      "rotation": [
        -0.27503126859664917,
        0.07690411806106567,
        -0.06863677501678467,
        0.9558935761451721
      ],
      "scale": [
        0.9999999403953552,
        0.9999998807907104,
        0.9999999403953552
      ],
      "translation": [
        2.0401785150170326e-08,
        0.4126717448234558,
        1.280568540096283e-08
      ]
    },
    {
      "name": "Bone.004_end_018",
      "rotation": [
        -1.3877787807814457e-16,
        3.469446951953614e-18,
        3.469446951953614e-18,
        1.0
      ],
      "translation": [
        5.551115123125783e-17,
        0.8991815447807312,
        0.0
      ]
    },
    {
      "children": [
        15,
        17
      ],
      "name": "Bone.005_05",
      "rotation": [
        -0.46455180644989014,
        0.024385876953601837,
        0.033947642892599106,
        0.884558916091919
      ],
      "scale": [
        0.9999998807907104,
        1.0,
        1.0
      ],
      "translation": [
        -0.0028201229870319366,
        0.17602011561393738,
        -0.24902670085430145
      ]
    },
    {
      "children": [
        16
      ],
      "name": "Bone.006_06",
      "rotation": [
        -0.5948630571365356,
        -0.08143220841884613,
        0.06556330621242523,
        0.7969995141029358
      ],
      "scale": [
        1.0,
        0.9999998807907104,
        0.9999999403953552
      ],
      "translation": [
        3.725290298461914e-09,
        0.6475384831428528,
        -4.4994521886110306e-08
      ]
    },
    {
      "name": "Bone.006_end_019",
      "rotation": [
        -8.326672684688674e-17,
        -4.85722573273506e-17,
        -4.044452883213195e-33,
        1.0
      ],
      "translation": [
        -5.551115123125783e-17,
        0.6940343379974365,
        -1.1102230246251565e-16
      ]
    },
    {
      "children": [
        18
      ],
      "name": "Bone.007_07",
      "rotation": [
        -0.32906222343444824,
        0.09554452449083328,
        -0.013419941067695618,
        0.9393664002418518
      ],
      "scale": [
        0.9999999403953552,
        1.0,
        0.9999999403953552
      ],
      "translation": [
        3.725290298461914e-09,
        0.6475384831428528,
        -4.4994521886110306e-08
      ]
    },
    {
      "name": "Bone.007_end_020",
      "rotation": [
        -6.938893903907228e-18,
        -1.5178830414797062e-17,
        6.938893903907228e-18,
        1.0
      ],
      "translation": [
        0.0,
        0.6824890971183777,
        -1.1102230246251565e-16
      ]
    },
    {
      "children": [
        20
      ],
      "name": "Bone.008_08",
      "rotation": [
        0.0773862972855568,
        -0.07685086131095886,
        -0.7004441022872925,
        0.7053250074386597
      ],
      "scale": [
        1.0,
        1.0,
        0.9999999403953552
      ],
      "translation": [
        -0.0028201225213706493,
        0.17602011561393738,
        -0.24902670085430145
      ]
    },
    {
      "children": [
        21
      ],
      "name": "Bone.009_09",
      "rotation": [
        0.07059939205646515,
        4.263058173137324e-08,
        0.002261150861158967,
        0.9975022077560425
      ],
      "scale": [
        1.0,
        0.9999999403953552,
        1.0
      ],
      "translation": [
        2.5775195311439347e-09,
        0.5376284122467041,
        1.8044374883174896e-09
      ]
    },
    {
      "name": "Bone.009_end_021",
      "rotation": [
        -2.7755575615628914e-17,
        5.204170427930421e-18,
        -2.6020852139652106e-18,
        1.0
      ],
      "translation": [
        2.220446049250313e-16,
        0.4359833002090454,
        5.551115123125783e-17
      ]
    },
    {
      "children": [
        23
      ],
      "name": "Bone.010_010",
      "rotation": [
        0.07397384196519852,
        0.07348506897687912,
        0.7009177803993225,
        0.7055793404579163
      ],
      "scale": [
        0.9999998807907104,
        0.9999998807907104,
        0.9999999403953552
      ],
      "translation": [
        -0.0028201225213706493,
        0.17602011561393738,
        -0.24902670085430145
      ]
    },
    {
      "children": [
        24
      ],
      "name": "Bone.011_011",
      "rotation": [
        0.4402524530887604,
        7.587275831610896e-06,
        -0.014081569388508797,
        0.8977636098861694
      ],
      "scale": [
        1.0,
        1.0000001192092896,
        1.0
      ],
      "translation": [
        -1.3507185592231963e-08,
        0.5245811939239502,
        5.995389074087143e-09
      ]
    },
    {
      "name": "Bone.011_end_022",
      "rotation": [
        2.7755575615628914e-17,
        1.3010426069826053e-18,
        -8.673617379884035e-19,
        1.0
      ],
      "translation": [
        0.0,
        0.4448370039463043,
        1.6653345369377348e-16
      ]
    },
    {
      "children": [
        26,
        29
      ],
      "name": "Bone.012_012",
      "rotation": [
        0.07099183648824692,
        0.0,
        0.0,
        0.9974768757820129
      ],
      "translation": [
        -0.0028201225213706493,
        0.17602011561393738,
        -0.24902670085430145
      ]
    },
    {
      "children": [
        27
      ],
      "name": "Bone.013_013",
      "rotation": [
        0.005297597497701645,
        2.0727302540990422e-08,
        -0.7217414379119873,
        0.6921424865722656
      ],
      "scale": [
        0.9999999403953552,
        0.9999999403953552,
        0.9999999403953552
      ],
      "translation": [
        0.0,
        0.7137047052383423,
        -1.4901161193847656e-08
      ]
    },
    {
      "children": [
        28
      ],
      "name": "Bone.016_014",
      "rotation": [
        -0.09086084365844727,
        0.0035760437604039907,
        0.503339409828186,
        0.8592909574508667
      ],
      "scale": [
        1.0,
        1.0,
        0.9999999403953552
      ],
      "translation": [
        1.0244548320770264e-08,
        0.3048041760921478,
        2.421438694000244e-08
      ]
    },
    {
      "name": "Bone.016_end_023",
      "rotation": [
        -8.673617379884035e-18,
        4.4950903975444274e-34,
        -5.182486384480711e-17,
        1.0
      ],
      "translation": [
        1.1102230246251565e-16,
        0.3906046748161316,
        1.3877787807814457e-17
      ]
    },
    {
      "children": [
        30
      ],
      "name": "Bone.014_015",
      "rotation": [
        0.0028687550220638514,
        1.4959192995434023e-08,
        0.7151519656181335,
        0.6989631056785583
      ],
      "translation": [
        0.0,
        0.7137047052383423,
        -1.4901161193847656e-08
      ]
    },
    {
      "children": [
        31
      ],
      "name": "Bone.015_016",
      "rotation": [
        -0.09379727393388748,
        -0.007415241561830044,
        -0.4717268645763397,
        0.8767102360725403
      ],
      "translation": [
        -5.820766091346741e-08,
        0.27868664264678955,
        -7.916241884231567e-09
      ]
    },
    {
      "name": "Bone.015_end_024",
      "rotation": [
        -2.5153490401663703e-17,
        -1.3877787807814457e-17,
        -4.119968255444917e-18,
        1.0
      ],
      "translation": [
        -5.551115123125783e-17,
        0.3953585624694824,
        -1.3877787807814457e-17
      ]
    },
    {
      "matrix": [
        1.0000004137040133,
        -2.6759232850392944e-12,
        9.696380070395305e-11,
        0.0,
        -9.696376927053333e-11,
        -1.5028142808178594e-07,
        1.0000000853796893,
        0.0,
        -2.67590782245484e-12,
        -1.000000080834801,
        -1.5028142739877396e-07,
        0.0,
        -6.628612048142912e-09,
        -3.219964082035176e-06,
        2.4491170691476327e-07,
        1.0
      ],
      "name": "Object_32"
    },
    {
      "mesh": 0,
      "name": "Object_33",
      "skin": 0
    },
    {
      "name": "material",
      "rotation": [
        0.70710688829422,
        0.0,
        0.0,
        0.7071067094802856
      ],
      "scale": [
        1.0000004768371582,
        1.0000001192092896,
        1.0000001192092896
      ],
      "translation": [
        0.0,
        -7.267226465046406e-06,
        0.0
      ]
    }
  ],
  "samplers": [
    {
      "magFilter": 9729,
      "minFilter": 9987,
      "wrapS": 10497,
      "wrapT": 10497
    }
  ],
  "scene": 0,
  "scenes": [
    {
      "name": "Sketchfab_Scene",
      "nodes": [
        0
      ]
    }
  ],
  "skins": [
    {
      "inverseBindMatrices": 5,
      "joints": [
        6,
        7,
        8,
        9,
        10,
        11,
        12,
        13,
        14,
        15,
        16,
        17,
        18,
        19,
        20,
        21,
        22,
        23,
        24,
        25,
        26,
        27,
        28,
        29,
        30,
        31
      ],
      "skeleton": 6
    }
  ],
  "textures": [
    {
      "sampler": 0,
      "source": 0
    },
    {
      "sampler": 0,
      "source": 1
    },
    {
      "sampler": 0,
      "source": 2
    }
  ]
}
